<svg width="1725" height="400" viewBox="0 0 1725 400" fill="none" xmlns="http://www.w3.org/2000/svg">
<rect width="400" height="400" rx="64" fill="#1F222C"/>
<path d="M70 80C70 71.1634 77.1634 64 86 64H102C110.837 64 118 71.1634 118 80V320C118 328.837 110.837 336 102 336H86C77.1634 336 70 328.837 70 320V80Z" fill="#71747B"/>
<rect width="76" height="36" rx="16" transform="matrix(1 0 0 -1 149 180)" fill="#DDDDDD"/>
<rect width="96" height="36" rx="16" transform="matrix(1 0 0 -1 233 180)" fill="#DDDDDD"/>
<rect width="76" height="36" rx="16" transform="matrix(-1 0 0 1 329 220)" fill="#DDDDDD"/>
<rect width="96" height="36" rx="16" transform="matrix(-1 0 0 1 245 220)" fill="#DDDDDD"/>
<rect width="180" height="36" rx="16" transform="matrix(1 0 0 -1 149 104)" fill="#DDDDDD"/>
<rect x="149" y="296" width="180" height="36" rx="16" fill="#DDDDDD"/>
<path d="M582.96 286L550.56 239.2H548.64H514.8V286H475.92V118H548.64C563.52 118 576.4 120.48 587.28 125.44C598.32 130.4 606.8 137.44 612.72 146.56C618.64 155.68 621.6 166.48 621.6 178.96C621.6 191.44 618.56 202.24 612.48 211.36C606.56 220.32 598.08 227.2 587.04 232L624.72 286H582.96ZM582.24 178.96C582.24 169.52 579.2 162.32 573.12 157.36C567.04 152.24 558.16 149.68 546.48 149.68H514.8V208.24H546.48C558.16 208.24 567.04 205.68 573.12 200.56C579.2 195.44 582.24 188.24 582.24 178.96ZM776.244 221.92C776.244 222.4 776.004 225.76 775.524 232H677.844C679.604 240 683.764 246.32 690.324 250.96C696.884 255.6 705.044 257.92 714.804 257.92C721.524 257.92 727.444 256.96 732.564 255.04C737.844 252.96 742.724 249.76 747.204 245.44L767.124 267.04C754.964 280.96 737.204 287.92 713.844 287.92C699.284 287.92 686.404 285.12 675.204 279.52C664.004 273.76 655.364 265.84 649.284 255.76C643.204 245.68 640.164 234.24 640.164 221.44C640.164 208.8 643.124 197.44 649.044 187.36C655.124 177.12 663.364 169.2 673.764 163.6C684.324 157.84 696.084 154.96 709.044 154.96C721.684 154.96 733.124 157.68 743.364 163.12C753.604 168.56 761.604 176.4 767.364 186.64C773.284 196.72 776.244 208.48 776.244 221.92ZM709.284 183.28C700.804 183.28 693.684 185.68 687.924 190.48C682.164 195.28 678.644 201.84 677.364 210.16H740.964C739.684 202 736.164 195.52 730.404 190.72C724.644 185.76 717.604 183.28 709.284 183.28ZM834.771 288.88C823.411 288.88 812.931 286.8 803.331 282.64C793.891 278.32 786.131 272.24 780.051 264.4L801.651 238.48C810.771 250.8 821.171 256.96 832.851 256.96C848.691 256.96 856.611 247.68 856.611 229.12V149.2H797.571V118H895.251V226.96C895.251 247.6 890.131 263.12 879.891 273.52C869.651 283.76 854.611 288.88 834.771 288.88ZM992.454 287.92C978.854 287.92 966.614 285.12 955.734 279.52C945.014 273.76 936.614 265.84 930.534 255.76C924.454 245.68 921.414 234.24 921.414 221.44C921.414 208.64 924.454 197.2 930.534 187.12C936.614 177.04 945.014 169.2 955.734 163.6C966.614 157.84 978.854 154.96 992.454 154.96C1006.05 154.96 1018.21 157.84 1028.93 163.6C1039.65 169.2 1048.05 177.04 1054.13 187.12C1060.21 197.2 1063.25 208.64 1063.25 221.44C1063.25 234.24 1060.21 245.68 1054.13 255.76C1048.05 265.84 1039.65 273.76 1028.93 279.52C1018.21 285.12 1006.05 287.92 992.454 287.92ZM992.454 257.2C1002.05 257.2 1009.89 254 1015.97 247.6C1022.21 241.04 1025.33 232.32 1025.33 221.44C1025.33 210.56 1022.21 201.92 1015.97 195.52C1009.89 188.96 1002.05 185.68 992.454 185.68C982.854 185.68 974.934 188.96 968.694 195.52C962.454 201.92 959.334 210.56 959.334 221.44C959.334 232.32 962.454 241.04 968.694 247.6C974.934 254 982.854 257.2 992.454 257.2ZM1218.36 156.88V286H1182.84V270.64C1177.88 276.24 1171.96 280.56 1165.08 283.6C1158.2 286.48 1150.76 287.92 1142.76 287.92C1125.8 287.92 1112.36 283.04 1102.44 273.28C1092.52 263.52 1087.56 249.04 1087.56 229.84V156.88H1125V224.32C1125 245.12 1133.72 255.52 1151.16 255.52C1160.12 255.52 1167.32 252.64 1172.76 246.88C1178.2 240.96 1180.92 232.24 1180.92 220.72V156.88H1218.36ZM1288.81 173.92C1293.29 167.68 1299.29 162.96 1306.81 159.76C1314.49 156.56 1323.29 154.96 1333.21 154.96V189.52C1329.05 189.2 1326.25 189.04 1324.81 189.04C1314.09 189.04 1305.69 192.08 1299.61 198.16C1293.53 204.08 1290.49 213.04 1290.49 225.04V286H1253.05V156.88H1288.81V173.92ZM1433.95 154.96C1449.95 154.96 1462.83 159.76 1472.59 169.36C1482.51 178.96 1487.47 193.2 1487.47 212.08V286H1450.03V217.84C1450.03 207.6 1447.79 200 1443.31 195.04C1438.83 189.92 1432.35 187.36 1423.87 187.36C1414.43 187.36 1406.91 190.32 1401.31 196.24C1395.71 202 1392.91 210.64 1392.91 222.16V286H1355.47V156.88H1391.23V172C1396.19 166.56 1402.35 162.4 1409.71 159.52C1417.07 156.48 1425.15 154.96 1433.95 154.96ZM1573.49 154.96C1593.49 154.96 1608.85 159.76 1619.57 169.36C1630.29 178.8 1635.65 193.12 1635.65 212.32V286H1600.61V269.92C1593.57 281.92 1580.45 287.92 1561.25 287.92C1551.33 287.92 1542.69 286.24 1535.33 282.88C1528.13 279.52 1522.61 274.88 1518.77 268.96C1514.93 263.04 1513.01 256.32 1513.01 248.8C1513.01 236.8 1517.49 227.36 1526.45 220.48C1535.57 213.6 1549.57 210.16 1568.45 210.16H1598.21C1598.21 202 1595.73 195.76 1590.77 191.44C1585.81 186.96 1578.37 184.72 1568.45 184.72C1561.57 184.72 1554.77 185.84 1548.05 188.08C1541.49 190.16 1535.89 193.04 1531.25 196.72L1517.81 170.56C1524.85 165.6 1533.25 161.76 1543.01 159.04C1552.93 156.32 1563.09 154.96 1573.49 154.96ZM1570.61 262.72C1577.01 262.72 1582.69 261.28 1587.65 258.4C1592.61 255.36 1596.13 250.96 1598.21 245.2V232H1572.53C1557.17 232 1549.49 237.04 1549.49 247.12C1549.49 251.92 1551.33 255.76 1555.01 258.64C1558.85 261.36 1564.05 262.72 1570.61 262.72ZM1669.53 107.92H1706.97V286H1669.53V107.92Z" fill="#1F222C"/>
</svg>
